<svg xmlns="http://www.w3.org/2000/svg" viewBox="0 0 32 32" fill="none" shape-rendering="geometricPrecision">
  <!-- White rounded-square background matching app logo style -->
  <rect width="32" height="32" rx="6.5" fill="white"/>
  <!--
    "B" lettermark — hand-tuned path:
    Stem on left, two bowls on right.
    Proportions match a bold grotesque B (like Inter Black).
  -->
  <path
    d="
      M 8 7
      L 8 25
      L 18.2 25
      C 21.6 25 23.8 23.3 23.8 20.5
      C 23.8 18.6 22.7 17.2 21.0 16.5
      C 22.3 15.8 23.0 14.6 23.0 13.0
      C 23.0 10.1 21.0 7 17.4 7
      Z
      M 11.5 9.8
      L 17.0 9.8
      C 19.0 9.8 19.7 11.1 19.7 12.8
      C 19.7 14.5 18.8 15.6 17.0 15.6
      L 11.5 15.6
      Z
      M 11.5 18.2
      L 17.8 18.2
      C 19.9 18.2 20.3 19.6 20.3 20.8
      C 20.3 22.2 19.5 22.4 17.8 22.4
      L 11.5 22.4
      Z
    "
    fill="#09090b"
    fill-rule="evenodd"
  />
</svg>
